<?xml version="1.0" encoding="UTF-8" standalone="no"?>
<svg
   xmlns:dc="http://purl.org/dc/elements/1.1/"
   xmlns:cc="http://creativecommons.org/ns#"
   xmlns:rdf="http://www.w3.org/1999/02/22-rdf-syntax-ns#"
   xmlns:svg="http://www.w3.org/2000/svg"
   xmlns="http://www.w3.org/2000/svg"
   viewBox="0 0 711.37555 274.02414"
   height="274.02414"
   width="711.37555"
   id="svg64"
   version="1.1">
  <metadata
     id="metadata70">
    <rdf:RDF>
      <cc:Work
         rdf:about="">
        <dc:format>image/svg+xml</dc:format>
        <dc:type
           rdf:resource="http://purl.org/dc/dcmitype/StillImage" />
        <dc:title></dc:title>
      </cc:Work>
    </rdf:RDF>
  </metadata>
  <defs
     id="defs68" />
  <path
     id="path74"
     d="m 131.71913,263.61914 c -1.90122,-0.3611 -5.57255,-1.5321 -9.56602,-3.0512 -2.34669,-0.8927 -9.31504,-5.1415 -12.23713,-7.4614 -10.802591,-8.5764 -16.939551,-14.3982 -22.556101,-21.3975 -6.54942,-8.16188 -18.609005,-17.20912 -25.753365,-19.32044 -5.3153,-1.57079 -12.655263,-2.01998 -18.258493,-1.11737 -1.36573,0.22 -2.63728,0.3459 -2.82565,0.27979 -0.1884,-0.0661 0.46891,-0.81256 1.46068,-1.65877 3.95058,-3.37081 9.00275,-8.98835 8.51889,-9.47222 -0.0697,-0.0697 -0.55757,0.19673 -1.08415,0.59209 -1.09276,0.8205 -7.82258,4.10063 -7.82258,3.81276 0,-0.10423 0.43969,-0.65517 0.97708,-1.22431 1.01245,-1.07225 1.68845,-2.54105 4.40465,-9.57004 0.88272,-2.28426 1.92038,-4.74577 2.30591,-5.47001 l 0.70098,-1.3168 -0.65654,-2.27159 c -1.29203,-4.4702 -1.79416,-8.76832 -2.48374,-21.26043 -0.35968,-6.51601 -0.14651,-10.26337 0.98274,-17.2759 0.36576,-2.27138 0.59234,-4.32756 0.5035,-4.5693 -0.14572,-0.39651 -3.43648,-2.98742 -6.19956,-4.88108 -4.4303,-3.0363 -9.91422,-8.34127 -13.35587,-12.92009 -4.83222,-6.42883 -12.25619,-19.30532 -14.37666,-24.93557 -0.88394,-2.34705 -2.79547,-10.20699 -3.29885,-13.56443 -1.08868,-7.26131 -1.4216007,-17.71568 -0.75783,-23.79836 0.93524,-8.57049 5.77138,-27.59852 8.46712,-33.31422 0.15156,-0.32135 0.5604,-1.43877 0.90851,-2.48315 0.34811,-1.04439 0.88535,-2.40142 1.19385,-3.015641 0.4968,-0.98918 0.52654,-1.35625 0.26035,-3.21349 -0.29684,-2.07087 -0.3565,-4.81063 -0.11405,-5.23837 0.0686,-0.12115 0.5564,0.1089 1.08388,0.51123 0.52748,0.40233 1.16574,0.73151 1.41838,0.73151 0.25261,0 0.5309,0.16433 0.61842,0.36517 0.0875,0.20084 0.14084,-0.75225 0.11846,-2.11799 -0.0222,-1.365731 -0.17008,-2.779491 -0.3283,-3.141691 -0.15819,-0.3622 -0.20441,-0.74175 -0.10272,-0.84346 0.1017,-0.1016995 2.45649,0.93821 5.23286,2.31091 2.77637,1.372701 9.18899,4.535231 14.25024,7.027831 9.14105,4.501851 12.340253,6.407791 23.224803,13.836311 10.57112,7.2146 14.182655,10.2305 23.008635,19.21394 2.53223,2.57742 5.16146,5.45446 5.84272,6.39344 0.68126,0.93897 1.88521,2.5165 2.67546,3.50563 1.89077,2.36658 4.786991,6.80544 6.224561,9.54001 0.63353,1.20506 2.03076,3.71856 3.105,5.58556 1.07421,1.86701 2.42087,4.49623 2.99252,5.84272 0.98982,2.33138 2.32015,4.05492 3.12983,4.05492 0.20561,0 2.14258,-0.57831 4.30439,-1.28513 4.53115,-1.4815 6.51358,-1.82415 13.579,-2.34704 9.88358,-0.73146 20.16536,0.17038 26.65262,2.33775 2.1309,0.71193 4.19945,1.29442 4.59676,1.29442 1.14575,0 2.35555,-1.41032 3.47834,-4.05492 0.57165,-1.34649 1.91831,-3.97571 2.99253,-5.84272 1.07424,-1.867 2.47147,-4.3805 3.10499,-5.58556 1.43757,-2.73457 4.33381,-7.17343 6.22457,-9.54001 0.79023,-0.98913 1.99421,-2.56666 2.67547,-3.50563 1.36144,-1.87647 8.72774,-9.47722 13.46048,-13.88891 4.36527,-4.06912 10.60927,-8.61707 23.57067,-17.16814 4.82518,-3.18333 7.44535,-4.643911 15.045,-8.386641 5.06126,-2.4926 11.47387,-5.65513 14.25025,-7.027831 2.77637,-1.3727 5.13116,-2.4126095 5.23285,-2.31091 0.10169,0.10171 0.0555,0.48126 -0.10271,0.84346 -0.15822,0.3622 -0.30596,1.77596 -0.32831,3.141691 -0.0222,1.36574 0.0309,2.31883 0.11847,2.11799 0.0875,-0.20084 0.36581,-0.36517 0.61842,-0.36517 0.25264,0 0.8909,-0.32918 1.41838,-0.73151 0.52749,-0.40233 1.03148,-0.61432 1.12,-0.47109 0.0885,0.14322 0.0768,1.55695 -0.0263,3.14162 -0.31863,4.90626 -0.26251,5.676321 0.58255,7.993601 0.43946,1.20506 0.92239,2.45394 1.07322,2.77529 2.70944,5.77303 7.53077,24.74572 8.46578,33.31422 0.66376,6.08268 0.33084,16.53705 -0.75783,23.79836 -0.50338,3.35744 -2.41492,11.21738 -3.29886,13.56443 -2.12047,5.63025 -9.54445,18.50674 -14.37667,24.93557 -3.48895,4.64175 -8.73647,9.70307 -13.54249,13.062 -0.68967,0.48202 -2.39309,1.7178 -3.78538,2.74618 -2.26186,1.67068 -2.51467,1.95063 -2.37451,2.62922 0.49658,2.40417 1.37111,8.67369 1.6423,11.77364 0.22615,2.58499 0.22369,5.23132 -0.009,9.43533 -0.69093,12.49975 -1.19235,16.79099 -2.48418,21.26043 l -0.65654,2.27159 0.67498,1.26797 c 0.6164,1.15788 2.18713,5.01619 4.35382,10.69453 0.6597,1.72891 1.1946,2.55023 2.53611,3.89417 0.93507,0.93673 1.70012,1.76432 1.70012,1.83908 0,0.31744 -2.25675,-0.28354 -2.98256,-0.79425 -0.4352,-0.30633 -0.88357,-0.55697 -0.99619,-0.55697 -0.11261,0 -1.30929,-0.80248 -2.65925,-1.78329 -1.34996,-0.98081 -2.53156,-1.70623 -2.62575,-1.61204 -0.5051,0.50511 5.71777,7.42458 8.85122,9.84203 0.93487,0.72123 1.47789,1.32429 1.29452,1.43762 -0.17374,0.10736 -1.06764,0.0865 -1.9865,-0.0464 -5.33297,-0.77118 -7.79538,-0.8528 -11.81173,-0.39148 -5.5308,0.63527 -7.97767,1.3136 -12.12031,3.36004 -6.48054,3.20137 -15.96289,11.012 -21.02011,17.31431 -5.61655,6.9993 -11.75351,12.8211 -22.55611,21.3975 -3.71395,2.9486 -10.12038,6.6786 -13.73021,7.9941 -4.75238,1.7319 -6.73052,2.3286 -8.80329,2.6557 -2.622,0.4137 -9.9415,0.3328 -12.41577,-0.1372 z m 1.27652,-24.7348 c 0.72321,-0.3501 2.25894,-1.5332 3.4127,-2.6292 1.1538,-1.096 2.26371,-1.9927 2.46654,-1.9927 0.2028,0 1.29185,0.8708 2.42011,1.9352 1.12823,1.0643 2.74833,2.2542 3.6002,2.6442 1.38495,0.6341 1.68173,0.6736 2.80441,0.3739 2.52143,-0.6732 10.2883,-5.048 10.65402,-6.001 0.1199,-0.3125 -0.27267,-0.9193 -1.18256,-1.828 -1.34619,-1.3444 -1.37132,-1.3548 -2.15976,-0.892 -0.43873,0.2576 -2.13487,1.283 -3.7692,2.2787 -3.47758,2.1188 -4.60023,2.4078 -5.99323,1.5427 -1.41493,-0.8788 -4.03533,-3.7744 -4.03533,-4.4592 0,-0.1021 0.75661,-0.6526 1.68133,-1.2233 0.92473,-0.5708 2.50226,-1.89271 3.50563,-2.93761 2.96007,-3.08261 2.49785,-3.98015 -2.43232,-4.72325 -4.31873,-0.65093 -8.84094,-0.48295 -12.46319,0.46296 -2.81792,0.73587 -1.67487,3.20814 3.16868,6.8535 1.1868,0.8932 2.15783,1.7515 2.15783,1.9074 0,0.3919 -2.29843,2.654 -3.80705,3.7468 -0.68582,0.4968 -1.5596,0.9033 -1.94177,0.9033 -0.84296,0 -3.23856,-1.202 -6.36287,-3.1927 -1.27882,-0.8148 -2.4781,-1.4815 -2.66504,-1.4815 -0.18697,0 -0.88643,0.5929 -1.5544,1.3176 -0.98154,1.0648 -1.15928,1.4206 -0.9268,1.855 0.47516,0.8878 6.90578,4.5766 9.80847,5.6264 1.87425,0.6779 2.04159,0.6738 3.6136,-0.087 z m -26.69234,-41.25978 c 1.86616,-0.51894 3.79318,-1.4748 5.18886,-2.57384 0.60443,-0.47596 1.93814,-1.16977 2.9638,-1.54179 3.04751,-1.10537 4.3691,-1.98701 4.85265,-3.23723 0.23703,-0.61289 -0.49462,-3.81894 -1.15175,-5.04682 -0.17864,-0.33375 -0.37843,-1.7613 -0.44402,-3.17233 -0.0656,-1.41103 -0.21524,-3.01347 -0.33257,-3.56098 -0.20353,-0.94973 -0.18103,-0.98586 0.48971,-0.78631 0.38667,0.11504 1.82045,0.27073 3.18618,0.34598 2.2205,0.12234 2.69946,0.0503 4.52811,-0.68092 1.62664,-0.65046 2.06496,-0.95774 2.14273,-1.50219 0.14005,-0.98056 -0.17236,-1.1599 -2.14273,-1.23 -3.11265,-0.11073 -6.20839,-1.3608 -9.88942,-3.9934 -0.83851,-0.59967 -1.73701,-1.22177 -1.99666,-1.38245 -0.25965,-0.16067 -1.75746,-1.21236 -3.32848,-2.33709 -3.79776,-2.7189 -5.29379,-3.78367 -6.69564,-4.76551 -0.64269,-0.45015 -1.83525,-1.28837 -2.65011,-1.86271 -2.219901,-1.56471 -5.822431,-3.4358 -8.119121,-4.21695 -1.65121,-0.56161 -2.64222,-0.69419 -5.18894,-0.69419 -3.1622,0 -5.92639,0.3968 -6.61291,0.94929 -0.52237,0.42038 0.0329,1.00779 1.19232,1.26125 0.5111,0.11173 1.84949,0.6334 2.97421,1.15926 1.12472,0.52586 2.77462,1.21249 3.66642,1.52585 1.67222,0.58754 7.20869,3.63477 7.72688,4.25278 0.16068,0.19163 0.98278,0.86822 1.8269,1.50354 1.731071,1.30289 1.701161,1.36449 -0.98943,2.03696 -0.94264,0.2356 -2.78108,0.81971 -4.08543,1.29804 -2.60203,0.95419 -5.15597,1.15346 -9.63704,0.75191 -2.91765,-0.26145 -3.25434,0.0444 -1.67304,1.51972 1.33559,1.24609 4.86468,3.02237 6.00483,3.02237 0.44638,0 0.81161,0.10966 0.81161,0.24369 0,0.34733 -4.95793,1.19341 -5.91789,1.0099 -1.00912,-0.1929 -1.07774,0.42994 -0.14393,1.30658 0.7271,0.68257 3.03538,1.80542 3.73212,1.81545 0.37695,0.005 0.4293,0.4677 0.33987,3.00081 -0.13783,3.90365 0.64343,6.53913 2.82934,9.54446 0.82365,1.13245 1.49758,2.14206 1.49758,2.24359 0,0.10153 -0.36012,0.11576 -0.80028,0.0316 -1.10395,-0.21104 -1.98606,0.2739 -1.5199,0.83558 0.19071,0.22981 0.52787,0.41783 0.74919,0.41783 0.66709,0 0.45246,0.40763 -0.50005,0.94977 -1.56354,0.8899 -0.94868,1.23498 1.94592,1.09217 4.06223,-0.20041 5.4152,-0.1294 6.99031,0.36692 1.85086,0.5832 6.247821,0.63663 8.179801,0.0994 z m -6.797561,-6.526 c -2.24083,-0.74305 -3.96858,-2.23501 -4.98892,-4.30812 -1.17795,-2.39333 -1.29197,-3.16861 -0.82744,-5.62537 0.46049,-2.43526 1.70654,-4.51929 3.34387,-5.59257 l 1.03635,-0.67936 2.656151,0.66061 c 1.46091,0.36332 3.05057,0.82727 3.5326,1.03099 2.48029,1.04826 3.1536,1.38349 4.86234,2.42086 l 1.85678,1.12725 0.16415,1.72205 c 0.38872,4.07748 -1.87644,7.75325 -5.63842,9.1497 -1.58744,0.58925 -4.3722,0.63288 -5.997461,0.094 z m 78.955131,6.28088 c 0.80338,-0.18219 3.36488,-0.33868 5.69227,-0.34775 3.79,-0.0148 4.2419,-0.0698 4.33042,-0.52773 0.0544,-0.28118 -0.0172,-0.51124 -0.15889,-0.51124 -0.14175,0 -0.5129,-0.19069 -0.82479,-0.42375 -0.55649,-0.41584 -0.55471,-0.43256 0.0951,-0.89639 0.85675,-0.61152 0.58588,-1.01695 -0.67942,-1.01695 -0.5529,0 -1.00524,-0.1422 -1.00524,-0.316 0,-0.1738 0.44375,-0.86398 0.9861,-1.53371 1.22341,-1.51077 1.67757,-2.41804 2.51068,-5.01548 0.57603,-1.7959 0.63221,-2.40529 0.46131,-5.00362 l -0.19462,-2.95866 0.98803,-0.18536 c 0.54343,-0.10195 1.61192,-0.58101 2.37445,-1.06458 1.65186,-1.04759 1.72036,-1.78558 0.17745,-1.91166 -4.72702,-0.38625 -6.29387,-0.88024 -4.1698,-1.31466 1.46751,-0.30014 4.17666,-1.76871 5.39843,-2.9264 1.89635,-1.79682 1.41847,-2.15395 -2.15426,-1.60994 -3.86225,0.58809 -6.1717,0.33992 -10.69814,-1.14958 -2.17711,-0.71642 -4.13334,-1.30258 -4.34713,-1.30258 -0.66697,0 -0.42625,-0.54987 0.43593,-0.99571 0.45357,-0.23455 1.00772,-0.64704 1.2315,-0.91666 1.15577,-1.39263 10.34275,-6.27106 14.5956,-7.7505 1.04439,-0.36331 2.06482,-0.78727 2.26765,-0.94212 1.1455,-0.87457 -2.12555,-1.66472 -6.89154,-1.66472 -3.34046,0 -5.06184,0.46077 -8.81436,2.35938 -2.14095,1.08323 -3.05884,1.67676 -6.7422,4.35975 -0.99262,0.72303 -2.17423,1.57753 -2.62578,1.89888 -0.45153,0.32135 -2.99889,2.16181 -5.66081,4.0899 -7.83096,5.6722 -9.18165,6.39187 -12.96811,6.90969 -3.00012,0.41028 -3.64192,0.80391 -2.80986,1.72335 1.59527,1.76272 5.55307,2.32725 9.7792,1.39489 0.28845,-0.0636 0.4032,0.0988 0.34542,0.48897 -0.0476,0.32135 -0.0907,1.37304 -0.0957,2.33708 -0.0108,2.06248 -0.29427,3.52505 -1.31021,6.76002 -0.69741,2.22084 -0.71687,2.43581 -0.29421,3.25313 0.50286,0.97244 2.79145,2.36973 4.85414,2.96367 0.72303,0.2082 1.90618,0.80743 2.62922,1.33163 1.60032,1.16024 2.98017,1.88331 4.52811,2.37286 1.45495,0.46014 6.80814,0.48613 8.76407,0.0426 z m -5.69665,-6.05825 c -5.00338,-0.97473 -8.23034,-6.09854 -6.83837,-10.85809 0.23648,-0.80861 4.99295,-3.42171 8.15298,-4.47906 1.85577,-0.62094 4.47491,-1.08136 5.07248,-0.8917 0.30154,0.0957 1.09162,0.72279 1.75571,1.39351 2.09011,2.11102 2.92378,5.5716 2.089,8.6717 -0.77512,2.87856 -3.76727,5.68452 -6.41592,6.01665 -0.733,0.0919 -1.66137,0.20741 -2.06306,0.25665 -0.40169,0.0493 -1.19046,-1e-4 -1.75282,-0.10966 z"
     style="fill:#ffffff;stroke:none;stroke-width:0.29213592" />
  <g
     transform="translate(-9.9034199,13.104481)"
     id="text852"
     style="font-style:normal;font-weight:normal;font-size:40px;line-height:1.25;font-family:sans-serif;letter-spacing:0px;word-spacing:0px;fill:#fda5c8;fill-opacity:1;stroke:none"
     aria-label="FoxyFury">
    <path
       id="path854"
       style="font-style:normal;font-variant:normal;font-weight:900;font-stretch:normal;font-size:96px;font-family:'Elsie Swash Caps';-inkscape-font-specification:'Elsie Swash Caps Heavy';fill:#fda5c8;fill-opacity:1"
       d="m 317.87142,145.17159 v 1.536 h -31.872 v -1.536 h 6.144 V 83.155594 l -6.24,-1.152 0.384,-1.536 q 7.872,1.632 15.84,1.632 8.064,0 16.608,-1.728 8.64,-1.824 13.152,-1.824 4.512,0 7.872,2.88 3.36,2.88 3.36,7.776 0,4.8 -2.976,7.968 -2.976,3.071996 -7.008,3.071996 -3.936,0 -6.72,-2.495996 -2.688,-2.592 -2.688,-6.24 0,-3.648 2.208,-6.24 2.304,-2.592 5.856,-2.592 5.376,0 7.104,4.128 0,0.192 0.288,0.672 0.288,0.672 0.768,0.672 0.864,0 0.864,-0.96 0,-2.112 -2.496,-4.416 -2.496,-2.4 -6.144,-2.4 -3.552,0 -6.048,0.384 -2.4,0.384 -6.528,1.248 -4.032,0.864 -7.872,1.44 v 29.951996 h 3.84 q 5.664,0 8.16,-2.784 2.592,-2.784 2.592,-9.024 h 1.536 v 25.152 h -1.536 q 0,-6.24 -2.592,-9.024 -2.496,-2.784 -8.16,-2.784 h -3.84 v 30.24 z" />
    <path
       id="path856"
       style="font-style:normal;font-variant:normal;font-weight:900;font-stretch:normal;font-size:96px;font-family:'Elsie Swash Caps';-inkscape-font-specification:'Elsie Swash Caps Heavy';fill:#fda5c8;fill-opacity:1"
       d="m 384.78336,142.00359 q -7.008,6.528 -18.336,6.528 -11.328,0 -18.336,-6.528 -7.008,-6.624 -7.008,-17.376 0,-10.752 7.008,-17.28 7.008,-6.624 18.336,-6.624 11.328,0 18.336,6.624 7.008,6.528 7.008,17.28 0,10.752 -7.008,17.376 z m -13.728,0 q 1.344,-4.896 1.344,-17.376 0,-12.48 -1.344,-17.28 -1.248,-4.896 -4.608,-4.896 -3.36,0 -4.704,4.896 -1.248,4.8 -1.248,17.28 0,12.48 1.248,17.376 1.344,4.8 4.704,4.8 3.36,0 4.608,-4.8 z" />
    <path
       id="path858"
       style="font-style:normal;font-variant:normal;font-weight:900;font-stretch:normal;font-size:96px;font-family:'Elsie Swash Caps';-inkscape-font-specification:'Elsie Swash Caps Heavy';fill:#fda5c8;fill-opacity:1"
       d="m 428.2713,112.05159 7.584,16.128 q 5.28,11.52 6.816,12.672 0.768,0.672 1.728,0.672 0.96,0 1.92,-0.96 0.96,-1.056 1.44,-2.016 l 0.48,-0.96 1.632,0.384 q -1.536,4.032 -5.664,7.296 -4.128,3.264 -9.696,3.264 -5.568,0 -8.544,-2.592 -2.88,-2.688 -6.048,-9.408 l -0.864,-1.632 q -5.376,13.632 -14.112,13.632 -4.224,0 -6.816,-2.4 -2.496,-2.496 -2.496,-6.048 0,-3.552 2.016,-5.952 2.112,-2.496 5.568,-2.496 3.552,0 5.472,2.112 2.016,2.112 2.016,4.704 0,2.592 -1.728,4.512 -1.632,1.824 -4.608,2.016 -1.152,0 -1.152,0.96 0,0.864 1.728,0.864 5.76,0 9.984,-7.296 1.344,-2.208 3.168,-6.816 l -6.048,-12.96 q -3.84,-8.16 -5.184,-10.176 -1.248,-2.112 -2.688,-2.112 -1.44,0 -2.592,1.056 -1.152,1.056 -1.728,2.112 l -0.48,1.056 -1.728,-0.288 q 1.728,-4.224 5.568,-7.392 3.84,-3.264 9.216,-3.264 5.472,0 8.832,2.208 3.36,2.208 6.048,7.2 2.016,-4.128 5.184,-6.72 3.168,-2.688 7.104,-2.688 3.936,0 6.432,2.496 2.592,2.4 2.592,5.952 0,3.552 -2.112,6.048 -2.016,2.4 -5.568,2.4 -3.456,0 -5.472,-2.112 -1.92,-2.112 -1.92,-4.704 0,-2.592 1.632,-4.416 1.728,-1.92 4.704,-2.112 1.152,0 1.152,-0.864 0,-0.96 -2.4,-0.96 -2.4,0 -5.472,2.784 -3.072,2.688 -4.896,6.816 z" />
    <path
       id="path860"
       style="font-style:normal;font-variant:normal;font-weight:900;font-stretch:normal;font-size:96px;font-family:'Elsie Swash Caps';-inkscape-font-specification:'Elsie Swash Caps Heavy';fill:#fda5c8;fill-opacity:1"
       d="m 488.27118,100.72359 q 5.568,0 8.352,4.128 2.88,4.032 2.88,10.176 0,14.496 -9.792,22.848 -1.824,1.536 -5.856,4.32 -3.936,2.688 -6.624,4.608 -2.592,1.92 -4.8,5.088 -2.208,3.168 -2.208,6.528 0,5.664 4.608,8.256 0.576,0.384 1.056,0.384 0.864,0 0.864,-0.864 0,-0.48 -0.768,-0.96 -2.976,-1.92 -2.976,-4.896 0,-2.976 1.824,-4.992 1.824,-1.92 4.8,-1.92 3.072,0 5.28,2.112 2.208,2.112 2.208,5.664 0,3.552 -2.4,5.76 -2.4,2.304 -6.336,2.304 -3.936,0 -6.912,-2.976 -2.976,-2.88 -2.976,-7.488 0,-4.512 2.112,-7.584 2.208,-3.072 6.048,-6.144 -11.808,-3.84 -15.936,-13.056 -4.032,-9.312 -4.032,-26.4 v -1.536 h -6.912 v -1.536 h 5.76 q 11.232,0 19.968,-1.824 -0.192,4.416 -0.192,9.888 0,5.376 1.056,11.04 1.152,5.568 2.88,8.64 3.36,6.048 6.72,6.048 5.376,0 9.6,-9.408 2.208,-4.992 2.208,-12.096 0,-7.104 -3.84,-10.368 -1.632,-1.632 -2.88,-1.632 -1.152,0 -1.152,0.864 0,0.576 0.864,0.96 3.264,1.536 3.264,4.704 0,3.168 -2.016,5.088 -1.92,1.824 -4.896,1.824 -2.976,0 -5.088,-2.112 -2.016,-2.208 -2.016,-5.568 0,-3.36 2.304,-5.568 2.4,-2.304 5.952,-2.304 z" />
    <path
       id="path862"
       style="font-style:normal;font-variant:normal;font-weight:900;font-stretch:normal;font-size:96px;font-family:'Elsie Swash Caps';-inkscape-font-specification:'Elsie Swash Caps Heavy';fill:#fda5c8;fill-opacity:1"
       d="m 535.69515,145.17159 v 1.536 h -31.872 v -1.536 h 6.144 V 83.155594 l -6.24,-1.152 0.384,-1.536 q 7.872,1.632 15.84,1.632 8.064,0 16.608,-1.728 8.64,-1.824 13.152,-1.824 4.512,0 7.872,2.88 3.36,2.88 3.36,7.776 0,4.8 -2.976,7.968 -2.976,3.071996 -7.008,3.071996 -3.936,0 -6.72,-2.495996 -2.688,-2.592 -2.688,-6.24 0,-3.648 2.208,-6.24 2.304,-2.592 5.856,-2.592 5.376,0 7.104,4.128 0,0.192 0.288,0.672 0.288,0.672 0.768,0.672 0.864,0 0.864,-0.96 0,-2.112 -2.496,-4.416 -2.496,-2.4 -6.144,-2.4 -3.552,0 -6.048,0.384 -2.4,0.384 -6.528,1.248 -4.032,0.864 -7.872,1.44 v 29.951996 h 3.84 q 5.664,0 8.16,-2.784 2.592,-2.784 2.592,-9.024 h 1.536 v 25.152 h -1.536 q 0,-6.24 -2.592,-9.024 -2.496,-2.784 -8.16,-2.784 h -3.84 v 30.24 z" />
    <path
       id="path864"
       style="font-style:normal;font-variant:normal;font-weight:900;font-stretch:normal;font-size:96px;font-family:'Elsie Swash Caps';-inkscape-font-specification:'Elsie Swash Caps Heavy';fill:#fda5c8;fill-opacity:1"
       d="m 610.28709,145.17159 h 5.952 v 1.536 h -24.096 v -7.488 h -0.48 q -3.744,9.408 -13.44,9.408 -8.256,0 -11.616,-5.088 -3.36,-5.184 -3.36,-14.688 v -24.768 h -6.816 v -1.536 h 5.76 q 10.08,0 18.816,-1.824 v 24.096 q 0,9.696 0.864,14.016 0.864,4.224 3.84,4.224 3.36,0 5.088,-6.528 1.728,-6.624 1.728,-15.072 v -17.28 h -6.816 v -1.632 h 5.76 q 10.08,0 18.816,-1.824 z" />
    <path
       id="path866"
       style="font-style:normal;font-variant:normal;font-weight:900;font-stretch:normal;font-size:96px;font-family:'Elsie Swash Caps';-inkscape-font-specification:'Elsie Swash Caps Heavy';fill:#fda5c8;fill-opacity:1"
       d="m 643.11901,108.49959 h 0.48 q 1.536,-3.456 4.32,-5.568 2.784,-2.208 6.72,-2.208 4.032,0 6.816,2.688 2.88,2.592 2.88,6.336 0,3.744 -2.208,6.24 -2.208,2.496 -5.664,2.496 -3.456,0 -5.664,-2.016 -2.112,-2.016 -2.112,-4.992 0,-3.072 1.728,-4.992 1.824,-2.016 4.512,-2.016 2.688,0 4.32,1.92 0.768,1.44 1.536,1.44 0.864,0 0.864,-0.864 0,-0.576 -0.576,-1.44 -2.304,-3.072 -6.528,-3.072 -11.808,0 -11.808,23.616 v 19.104 h 7.2 v 1.536 h -30.912 v -1.536 h 5.952 v -41.088 h -6.816 v -1.536 h 5.76 q 10.464,0 19.2,-1.824 z" />
    <path
       id="path868"
       style="font-style:normal;font-variant:normal;font-weight:900;font-stretch:normal;font-size:96px;font-family:'Elsie Swash Caps';-inkscape-font-specification:'Elsie Swash Caps Heavy';fill:#fda5c8;fill-opacity:1"
       d="m 700.04694,100.72359 q 5.568,0 8.352,4.128 2.88,4.032 2.88,10.176 0,14.496 -9.792,22.848 -1.824,1.536 -5.856,4.32 -3.936,2.688 -6.624,4.608 -2.592,1.92 -4.8,5.088 -2.208,3.168 -2.208,6.528 0,5.664 4.608,8.256 0.576,0.384 1.056,0.384 0.864,0 0.864,-0.864 0,-0.48 -0.768,-0.96 -2.976,-1.92 -2.976,-4.896 0,-2.976 1.824,-4.992 1.824,-1.92 4.8,-1.92 3.072,0 5.28,2.112 2.208,2.112 2.208,5.664 0,3.552 -2.4,5.76 -2.4,2.304 -6.336,2.304 -3.936,0 -6.912,-2.976 -2.976,-2.88 -2.976,-7.488 0,-4.512 2.112,-7.584 2.208,-3.072 6.048,-6.144 -11.808,-3.84 -15.936,-13.056 -4.032,-9.312 -4.032,-26.4 v -1.536 h -6.912 v -1.536 h 5.76 q 11.232,0 19.968,-1.824 -0.192,4.416 -0.192,9.888 0,5.376 1.056,11.04 1.152,5.568 2.88,8.64 3.36,6.048 6.72,6.048 5.376,0 9.6,-9.408 2.208,-4.992 2.208,-12.096 0,-7.104 -3.84,-10.368 -1.632,-1.632 -2.88,-1.632 -1.152,0 -1.152,0.864 0,0.576 0.864,0.96 3.264,1.536 3.264,4.704 0,3.168 -2.016,5.088 -1.92,1.824 -4.896,1.824 -2.976,0 -5.088,-2.112 -2.016,-2.208 -2.016,-5.568 0,-3.36 2.304,-5.568 2.4,-2.304 5.952,-2.304 z" />
  </g>
</svg>
