<svg xmlns="http://www.w3.org/2000/svg" viewBox="0 0 335.65 334.08"><defs><filter id="a" x="-.446" width="1.891" y="-.226" height="1.452" color-interpolation-filters="sRGB"><feGaussianBlur stdDeviation="21.673"/></filter><filter id="c" x="-.16" width="1.321" y="-.081" height="1.163" color-interpolation-filters="sRGB"><feGaussianBlur stdDeviation="7.802"/></filter><filter id="d" x="-.04" width="1.08" y="-.02" height="1.041" color-interpolation-filters="sRGB"><feGaussianBlur stdDeviation="1.951"/></filter><filter id="b" x="-.45" width="1.899" y="-.225" height="1.45" color-interpolation-filters="sRGB"><feGaussianBlur stdDeviation="21.575"/></filter><filter id="e" x="-.162" width="1.324" y="-.081" height="1.162" color-interpolation-filters="sRGB"><feGaussianBlur stdDeviation="7.767"/></filter><filter id="f" x="-.04" width="1.081" y="-.02" height="1.041" color-interpolation-filters="sRGB"><feGaussianBlur stdDeviation="1.942"/></filter></defs><path d="M463.934 94.29a84.194 84.194 0 00-6.73.224c-6.4.474-8.195.784-12.299 2.126-1.958.64-3.712 1.164-3.898 1.164-.734 0-1.938-1.561-2.835-3.673-.517-1.22-1.737-3.6-2.71-5.291a192.327 192.327 0 01-2.812-5.059c-1.302-2.477-3.925-6.497-5.638-8.64a104.404 104.404 0 01-2.423-3.175c-.617-.85-2.998-3.456-5.292-5.79-7.993-8.137-11.264-10.868-20.838-17.403-9.858-6.728-12.755-8.453-21.034-12.53-4.584-2.258-10.392-5.122-12.907-6.366-2.514-1.243-4.647-2.185-4.739-2.093-.092.093-.05.436.093.764.143.328.277 1.609.297 2.846.02 1.237-.028 2.1-.107 1.918-.08-.182-.332-.33-.56-.33-.23 0-.807-.299-1.284-.663-.478-.365-.92-.573-.982-.463-.22.387-.166 2.868.103 4.744.241 1.682.214 2.015-.236 2.91-.28.557-.766 1.786-1.081 2.731-.316.946-.686 1.958-.823 2.25-2.441 5.176-6.822 22.41-7.669 30.172-.6 5.509-.3 14.977.687 21.553.455 3.041 2.187 10.16 2.987 12.286 1.921 5.099 8.645 16.76 13.021 22.583 3.117 4.147 8.084 8.952 12.096 11.702 2.503 1.715 5.483 4.062 5.615 4.42.081.22-.125 2.082-.456 4.139-1.023 6.351-1.215 9.745-.89 15.647.625 11.313 1.08 15.206 2.25 19.255l.595 2.057-.636 1.193c-.349.656-1.288 2.885-2.088 4.954-2.46 6.366-3.072 7.696-3.99 8.668-.486.515-.884 1.012-.884 1.105 0 .258 6.104-2.696 7.036-3.405 1.151-.875 1.288-.78.612.424-.588 1.046-6.837 7.376-8.28 8.387-1.078.755-.486.871 2.22.435 5.074-.817 11.722-.41 16.536 1.013 6.47 1.912 17.392 10.106 23.324 17.498 5.087 6.34 10.645 11.612 20.429 19.38 2.646 2.1 8.958 5.948 11.083 6.757 3.617 1.376 6.942 2.436 8.664 2.763 1.277.243 3.946.356 6.473.352" fill="#f0f" stroke="#f0f" stroke-width="6" filter="url(#a)" transform="translate(-295.207 24.236)"/><path d="M463.934 257.829c1.908-.003 3.75-.066 4.772-.228 1.877-.296 3.668-.836 7.972-2.405 3.27-1.191 9.072-4.57 12.436-7.24 9.784-7.767 15.342-13.04 20.429-19.38 4.58-5.707 13.168-12.78 19.037-15.68 3.752-1.854 5.968-2.468 10.977-3.044 3.638-.417 5.868-.343 10.698.355 2.014.291 2.32.039 1.08-.89-3.209-2.403-9.452-9.384-8.392-9.384.084 0 1.137.715 2.339 1.588 1.201.873 2.268 1.587 2.37 1.587.102 0 .508.23.902.51.394.279 1.253.587 1.908.684l1.19.176-1.362-1.211c-1.576-1.4-2.407-2.725-3.34-5.318-1.112-3.088-2.824-7.272-3.473-8.492l-.613-1.152.595-2.057c1.17-4.048 1.624-7.935 2.25-19.255.21-3.808.212-6.204.008-8.546-.246-2.807-1.038-8.486-1.487-10.663-.127-.615.102-.868 2.15-2.381 1.261-.932 2.804-2.051 3.429-2.488 4.352-3.042 9.105-7.626 12.265-11.83 4.377-5.822 11.1-17.484 13.02-22.583.801-2.126 2.532-9.245 2.988-12.286.986-6.576 1.288-16.044.687-21.553-.847-7.76-5.214-24.944-7.668-30.173-.136-.29-.574-1.422-.972-2.513-.765-2.099-.816-2.796-.527-7.24.093-1.435.104-2.716.024-2.845-.08-.13-.537.062-1.015.427-.478.364-1.056.662-1.285.662-.228 0-.48.149-.56.33-.079.183-.127-.68-.107-1.917.02-1.237.154-2.518.297-2.846.144-.328.186-.671.093-.764-.092-.092-2.224.85-4.739 2.093-2.514 1.244-8.322 4.108-12.906 6.365-6.883 3.39-9.256 4.713-13.626 7.596-11.739 7.744-17.394 11.863-21.348 15.549-4.286 3.995-10.958 10.88-12.19 12.579-.618.85-1.708 2.279-2.424 3.175-1.712 2.143-4.336 6.163-5.638 8.64a192.123 192.123 0 01-2.811 5.059c-.973 1.69-2.193 4.072-2.71 5.291-1.018 2.396-2.113 3.673-3.15 3.673-.36 0-2.235-.528-4.164-1.173-4.405-1.471-10.741-2.298-17.409-2.341" fill="#0ff" stroke="#0ff" stroke-width="6" filter="url(#b)" transform="translate(-295.207 24.236)"/><path d="M463.934 94.29a83.815 83.815 0 00-6.73.224v0c-6.399.474-8.195.784-12.299 2.126v0c-1.958.64-3.712 1.164-3.898 1.164h-.001c-.733 0-1.937-1.562-2.834-3.673v0c-.518-1.22-1.737-3.6-2.71-5.292v0a190.62 190.62 0 01-2.812-5.058h-.001c-1.302-2.477-3.924-6.497-5.637-8.64v0a104.646 104.646 0 01-2.423-3.175v0c-.618-.852-2.998-3.457-5.292-5.79v0c-7.993-8.137-11.264-10.869-20.838-17.403v0c-9.858-6.728-12.756-8.454-21.034-12.53h-.001c-4.584-2.259-10.391-5.123-12.906-6.366v0c-2.514-1.243-4.647-2.185-4.739-2.093v.001c-.092.092-.05.435.093.763v0c.143.33.277 1.61.297 2.845v.001c.021 1.237-.028 2.1-.107 1.918v0c-.08-.183-.332-.33-.56-.33h-.001c-.229-.002-.806-.3-1.283-.664h-.001c-.478-.364-.919-.572-.981-.463l-.001.001c-.219.388-.165 2.87.104 4.744v0c.241 1.682.214 2.014-.236 2.91v.001c-.28.556-.766 1.785-1.081 2.73v.001c-.316.945-.686 1.957-.823 2.248v0c-2.441 5.177-6.822 22.41-7.669 30.172v.001c-.601 5.51-.299 14.977.687 21.553v.001c.456 3.041 2.187 10.16 2.987 12.284l.001.001c1.92 5.1 8.644 16.761 13.02 22.583h.001c3.117 4.147 8.083 8.952 12.095 11.702v0c2.503 1.715 5.483 4.061 5.615 4.42l.001.001c.08.22-.126 2.081-.457 4.138v0c-1.023 6.351-1.215 9.745-.89 15.646v0c.625 11.314 1.08 15.207 2.25 19.255v.001l.595 2.057h-.001l-.635 1.192v.001c-.349.656-1.288 2.885-2.088 4.954v0c-2.46 6.366-3.072 7.696-3.989 8.667v0c-.487.516-.885 1.013-.885 1.106v0c.004.256 6.104-2.697 7.036-3.405h.001c1.15-.875 1.287-.78.611.424v0c-.589 1.047-6.837 7.375-8.28 8.387h-.001c-1.077.755-.485.871 2.221.435v0c5.075-.817 11.722-.41 16.536 1.012v.001c6.471 1.912 17.393 10.106 23.324 17.498v0c5.087 6.34 10.645 11.612 20.429 19.38v0c2.647 2.1 8.958 5.948 11.083 6.757v0c3.617 1.376 6.942 2.436 8.664 2.764v0c1.277.242 3.946.355 6.473.351" fill="#f5f" stroke="#f5f" stroke-width="6" filter="url(#c)" transform="translate(-295.207 24.236)"/><path d="M463.934 94.29a84.284 84.284 0 00-6.73.225h-.001c-6.398.473-8.194.784-12.298 2.126v0c-1.958.64-3.712 1.163-3.898 1.163v0c-.734 0-1.938-1.561-2.835-3.672v0c-.518-1.22-1.737-3.601-2.71-5.292v0a190.62 190.62 0 01-2.812-5.058v-.001c-1.302-2.476-3.925-6.496-5.638-8.64v0a103.423 103.423 0 01-2.423-3.175v0c-.617-.851-2.998-3.456-5.292-5.79v0c-7.993-8.136-11.264-10.868-20.838-17.402v0c-9.858-6.728-12.756-8.454-21.034-12.531h-.001c-4.584-2.258-10.391-5.122-12.906-6.365v0c-2.514-1.243-4.647-2.185-4.739-2.093v0c-.092.093-.051.436.093.764v0c.143.328.277 1.608.297 2.845v0c.021 1.237-.028 2.1-.107 1.918v0c-.08-.182-.332-.33-.56-.33h-.001c-.229-.001-.806-.3-1.283-.663h-.001c-.477-.364-.919-.573-.981-.463v0c-.22.388-.166 2.869.103 4.744v0c.241 1.683.214 2.015-.236 2.91v0c-.28.558-.766 1.786-1.081 2.732v0c-.316.946-.686 1.958-.823 2.249v0c-2.442 5.177-6.822 22.41-7.669 30.172v0c-.601 5.51-.299 14.978.687 21.554v0c.456 3.04 2.187 10.159 2.987 12.285h.001c1.921 5.1 8.644 16.76 13.02 22.584h.001c3.117 4.147 8.083 8.95 12.095 11.7h.001c2.502 1.716 5.482 4.063 5.614 4.422h.001c.08.222-.126 2.083-.457 4.138v0c-1.023 6.352-1.215 9.746-.89 15.647v0c.625 11.314 1.08 15.207 2.25 19.255v0l.595 2.057h-.001l-.635 1.193v0c-.349.657-1.288 2.886-2.088 4.954v0c-2.46 6.366-3.072 7.697-3.989 8.668v0c-.487.516-.885 1.013-.885 1.106v0c.008.253 6.104-2.697 7.036-3.406h.001c1.15-.874 1.287-.78.611.425h-.001c-.589 1.048-6.836 7.375-8.279 8.387h-.001c-1.077.755-.485.87 2.221.435v0c5.075-.818 11.722-.41 16.536 1.012v0c6.471 1.913 17.393 10.106 23.324 17.498h.001c5.086 6.34 10.644 11.612 20.428 19.38v0c2.647 2.1 8.958 5.949 11.083 6.757v0c3.617 1.376 6.942 2.437 8.664 2.764h.001c1.277.242 3.945.355 6.472.35" fill="#faf" stroke="#faf" stroke-width="6" filter="url(#d)" transform="translate(-295.207 24.236)"/><path d="M463.934 257.829c1.908-.003 3.75-.067 4.772-.228v0c1.877-.296 3.668-.836 7.972-2.405h.001c3.269-1.191 9.071-4.57 12.435-7.24v0c9.784-7.768 15.342-13.04 20.429-19.379v-.001c4.58-5.707 13.168-12.781 19.037-15.681v0c3.752-1.853 5.968-2.467 10.977-3.043h.001c3.637-.418 5.868-.344 10.697.355h.001c2.013.291 2.319.038 1.079-.89v0c-3.209-2.404-9.452-9.384-8.392-9.384v0c.087.002 1.138.715 2.339 1.587v.001c1.201.873 2.268 1.587 2.37 1.587v0c.103 0 .509.229.902.509h.001c.394.28 1.252.588 1.907.685v0l1.19.175v0l-1.362-1.21v-.001c-1.576-1.4-2.407-2.724-3.341-5.318v0c-1.112-3.087-2.823-7.272-3.472-8.491v-.001l-.613-1.151v0l.595-2.058v0c1.17-4.048 1.624-7.934 2.25-19.255v0c.21-3.807.212-6.204.008-8.545v0c-.246-2.808-1.038-8.486-1.487-10.663v-.001c-.127-.614.103-.868 2.15-2.381h.001c1.26-.931 2.803-2.05 3.428-2.487v0c4.353-3.042 9.105-7.626 12.265-11.83v0c4.377-5.823 11.1-17.485 13.02-22.584h.001c.8-2.126 2.531-9.244 2.987-12.285v0c.986-6.576 1.288-16.045.687-21.554v0c-.847-7.76-5.214-24.943-7.668-30.172v0c-.137-.292-.574-1.422-.972-2.513v-.001c-.765-2.098-.816-2.796-.527-7.239v-.001c.093-1.435.104-2.715.024-2.845h-.001c-.08-.129-.536.063-1.014.427v0c-.478.365-1.056.663-1.285.663v0c-.229 0-.48.149-.56.331v0c-.079.18-.127-.683-.107-1.919v0c.021-1.237.154-2.517.297-2.845l.001-.001c.143-.327.185-.671.092-.763v0c-.097-.089-2.228.851-4.739 2.093v0c-2.515 1.244-8.322 4.108-12.906 6.365v0c-6.883 3.39-9.256 4.712-13.626 7.595v.001c-11.739 7.744-17.394 11.863-21.348 15.548v.001c-4.286 3.995-10.958 10.879-12.191 12.578v.001a103.41 103.41 0 01-2.423 3.174v.001c-1.712 2.143-4.336 6.163-5.638 8.64v0a189.923 189.923 0 01-2.811 5.058v.001c-.973 1.691-2.193 4.072-2.711 5.291v0c-1.017 2.395-2.112 3.673-3.15 3.673v0c-.36 0-2.234-.528-4.163-1.173h-.001c-4.405-1.471-10.74-2.298-17.408-2.341" fill="#5ff" stroke="#5ff" stroke-width="6" filter="url(#e)" transform="translate(-295.207 24.236)"/><path d="M463.934 257.829c1.908-.003 3.75-.066 4.772-.227v0c1.877-.296 3.669-.837 7.972-2.405h.001c3.269-1.192 9.071-4.57 12.435-7.24v-.001c9.784-7.767 15.342-13.04 20.429-19.38v0c4.58-5.707 13.168-12.781 19.037-15.68h.001c3.751-1.853 5.967-2.468 10.976-3.043h.001c3.637-.418 5.868-.344 10.697.354h.001c2.013.292 2.319.039 1.079-.89v0c-3.209-2.403-9.452-9.383-8.392-9.383v0c.086 0 1.138.715 2.339 1.587v0c1.201.873 2.268 1.588 2.37 1.588v0c.102 0 .508.229.902.509v0c.395.28 1.253.588 1.908.684v0l1.19.176v0l-1.362-1.211v0c-1.576-1.401-2.407-2.725-3.341-5.318v0c-1.111-3.087-2.823-7.272-3.472-8.492v0l-.613-1.152v0l.595-2.057v0c1.17-4.048 1.624-7.934 2.25-19.255v0c.21-3.808.212-6.204.008-8.545v-.001c-.246-2.808-1.038-8.485-1.487-10.663v0c-.127-.614.102-.868 2.15-2.381h.001a215.468 215.468 0 013.428-2.487v0c4.353-3.043 9.105-7.627 12.265-11.83v-.001c4.377-5.822 11.1-17.484 13.02-22.583l.001-.001c.8-2.126 2.531-9.244 2.987-12.284v0c.986-6.577 1.288-16.045.687-21.554v0c-.847-7.761-5.214-24.944-7.668-30.172v-.001c-.137-.292-.574-1.422-.972-2.513v0c-.765-2.1-.816-2.796-.527-7.24v0c.093-1.435.104-2.715.024-2.845h-.001c-.081-.13-.537.063-1.014.427v0c-.478.365-1.056.662-1.285.662v0c-.229 0-.48.149-.56.33v0c-.079.183-.127-.68-.107-1.917v0c.021-1.237.154-2.517.297-2.845l.001-.001c.143-.328.185-.671.092-.763v0c-.094-.091-2.226.85-4.739 2.093v0c-2.515 1.244-8.322 4.107-12.906 6.365v0c-6.883 3.39-9.256 4.712-13.626 7.595v0c-11.739 7.745-17.394 11.864-21.348 15.549v0c-4.286 3.996-10.958 10.88-12.191 12.579v0a103.41 103.41 0 01-2.423 3.175v0c-1.713 2.144-4.336 6.164-5.638 8.64v0a194.46 194.46 0 01-2.811 5.059h-.001c-.972 1.69-2.192 4.072-2.71 5.292v0c-1.017 2.395-2.112 3.672-3.15 3.672v0c-.361 0-2.234-.528-4.163-1.172h-.001c-4.404-1.472-10.74-2.3-17.408-2.342" fill="#aff" stroke="#aff" stroke-width="6" filter="url(#f)" transform="translate(-295.207 24.236)"/><path d="M64.613 52.015c-.021-.002-.035 0-.04.005-.093.092-.05.436.093.764.143.328.277 1.609.297 2.845.02 1.237-.028 2.1-.107 1.919-.08-.182-.332-.331-.56-.331-.23 0-.807-.298-1.285-.662-.478-.365-.92-.573-.982-.464-.22.388-.165 2.869.103 4.744.242 1.682.215 2.015-.235 2.91-.28.557-.766 1.787-1.081 2.732-.316.946-.686 1.958-.824 2.25-2.44 5.176-6.82 22.409-7.668 30.171-.6 5.51-.3 14.978.687 21.554.455 3.041 2.187 10.16 2.987 12.285 1.92 5.1 8.644 16.762 13.02 22.584 3.118 4.147 8.085 8.952 12.097 11.702 2.503 1.715 5.483 4.062 5.615 4.42.08.22-.125 2.082-.456 4.139-1.023 6.351-1.216 9.745-.89 15.646.624 11.314 1.079 15.207 2.25 19.256l.594 2.057-.635 1.193c-.349.655-1.289 2.885-2.088 4.954-2.46 6.366-3.072 7.696-3.99 8.667-.486.515-.884 1.013-.884 1.106 0 .258 6.104-2.696 7.036-3.405 1.151-.875 1.288-.78.612.424-.588 1.046-6.837 7.375-8.28 8.387-1.078.755-.487.871 2.219.435 5.075-.817 11.722-.41 16.536 1.012 6.471 1.912 17.393 10.106 23.325 17.498 5.087 6.34 10.645 11.612 20.429 19.38 2.646 2.101 8.958 5.95 11.083 6.758 3.617 1.376 6.942 2.436 8.663 2.763 1.245.237 3.814.349 6.284.35v.002h.121v-.001c2.471-.002 5.04-.114 6.285-.35 1.722-.328 5.046-1.388 8.663-2.764 2.126-.809 8.437-4.657 11.083-6.758 9.784-7.768 15.342-13.04 20.429-19.38 5.932-7.392 16.854-15.586 23.325-17.498 4.814-1.423 11.461-1.83 16.536-1.012 2.706.436 3.297.32 2.22-.435-1.444-1.012-7.693-7.34-8.28-8.387-.677-1.203-.54-1.299.61-.424.933.709 7.038 3.663 7.038 3.405 0-.093-.399-.59-.886-1.106-.917-.971-1.529-2.301-3.989-8.667-.799-2.07-1.74-4.299-2.088-4.954l-.635-1.193.595-2.057c1.17-4.049 1.625-7.942 2.25-19.256.325-5.901.132-9.295-.891-15.646-.331-2.057-.536-3.92-.456-4.138.132-.36 3.112-2.706 5.615-4.421 4.012-2.75 8.98-7.555 12.096-11.702 4.377-5.822 11.1-17.484 13.02-22.584.801-2.125 2.533-9.244 2.989-12.285.986-6.576 1.287-16.045.686-21.554-.847-7.762-5.227-24.995-7.668-30.172-.138-.29-.508-1.303-.824-2.249-.315-.945-.801-2.175-1.08-2.731-.45-.896-.477-1.229-.236-2.91.268-1.876.323-4.357.103-4.745-.062-.11-.504.1-.982.464s-1.056.662-1.284.662c-.23 0-.481.149-.56.33-.08.183-.128-.68-.108-1.918.02-1.236.154-2.517.297-2.845.144-.328.186-.672.094-.764-.093-.092-2.225.85-4.74 2.093a12063.84 12063.84 0 01-12.906 6.365c-8.279 4.077-11.176 5.803-21.034 12.531-9.574 6.534-12.845 9.266-20.839 17.402-2.293 2.335-4.674 4.94-5.291 5.79-.617.851-1.708 2.28-2.424 3.176-1.712 2.143-4.335 6.163-5.637 8.64a192.083 192.083 0 01-2.812 5.059c-.973 1.69-2.193 4.072-2.71 5.291-.897 2.112-2.102 3.673-2.836 3.673-.186 0-1.94-.524-3.898-1.164-4.104-1.342-5.899-1.652-12.298-2.126a84.133 84.133 0 00-6.541-.223h-.121a84.128 84.128 0 00-6.542.223c-6.399.474-8.194.784-12.298 2.126-1.958.64-3.712 1.164-3.898 1.164-.734 0-1.939-1.561-2.835-3.673-.518-1.22-1.738-3.6-2.71-5.291a192.083 192.083 0 01-2.812-5.059c-1.302-2.477-3.926-6.497-5.638-8.64a104.36 104.36 0 01-2.423-3.175c-.617-.85-2.999-3.456-5.292-5.79-7.994-8.137-11.264-10.869-20.839-17.403-9.858-6.728-12.755-8.454-21.034-12.531a12063.84 12063.84 0 01-12.906-6.365c-2.358-1.166-4.38-2.066-4.699-2.098zm5.311 21.612c.005-.003.009-.003.012 0 .061.062-.32 2.184-.846 4.716-.82 3.944-1.301 6.224-1.58 7.434-.139.604-.227.94-.282 1.084-.028.071-.046.094-.06.078-.012-.016-.018-.071-.02-.156-.009-.278.148-1.253.391-2.556.243-1.302.572-2.932.909-4.52.337-1.59.681-3.136.955-4.272.257-1.066.453-1.77.521-1.808zm197.35 0c.07.038.264.742.52 1.807.275 1.137.62 2.684.956 4.272.337 1.589.666 3.219.909 4.521.243 1.303.4 2.278.392 2.556-.003.085-.009.14-.022.156-.012.016-.031-.007-.059-.078-.055-.143-.143-.48-.282-1.084-.279-1.21-.76-3.49-1.58-7.434-.527-2.532-.907-4.654-.846-4.715.003-.004.008-.004.012-.001zM66.977 87.787c.02-.011.045.029.07.125.067.258.062.615-.01.794-.018.045-.035.065-.05.064-.015-.002-.029-.025-.04-.067a2.07 2.07 0 01-.032-.465c.003-.218.02-.364.043-.423.006-.015.012-.025.02-.028zm203.244 0c.007.003.013.013.02.028.023.059.039.205.042.423.003.218-.01.38-.032.465-.01.042-.025.065-.04.067-.015 0-.032-.02-.05-.064-.073-.18-.077-.536-.01-.794.025-.096.049-.136.07-.125zm-163.153 6.476c.036-.018.221.099.541.337.628.467 1.679 1.408 2.937 2.602a175.521 175.521 0 014.174 4.117 183.475 183.475 0 014.107 4.305c1.212 1.319 2.196 2.448 2.734 3.166.839 1.12 1.785 2.53 2.753 4.077a111.127 111.127 0 012.88 4.893 95.292 95.292 0 012.497 4.786c.71 1.474 1.272 2.777 1.598 3.754.382 1.143.639 2.134.571 2.201-.03.03-.09-.022-.193-.183-.103-.161-.25-.432-.454-.84-.409-.815-1.048-2.18-2.028-4.315a52.057 52.057 0 00-1.37-2.685c-.58-1.08-1.26-2.3-1.96-3.52-1.398-2.44-2.873-4.88-3.785-6.206-.536-.78-1.14-1.591-1.831-2.455a67.095 67.095 0 00-2.36-2.775 119.906 119.906 0 00-3.014-3.235 228.17 228.17 0 00-3.792-3.835 186.462 186.462 0 01-3.13-3.149c-.653-.682-.93-1.013-.875-1.04zm123.062 0c.056.027-.222.358-.875 1.04-.654.682-1.683 1.716-3.13 3.149a228.162 228.162 0 00-3.792 3.835 119.864 119.864 0 00-3.014 3.235 67.095 67.095 0 00-2.36 2.775 41.862 41.862 0 00-1.831 2.455c-.912 1.327-2.387 3.767-3.785 6.206-.7 1.22-1.38 2.44-1.96 3.52a52.057 52.057 0 00-1.37 2.685c-.98 2.135-1.619 3.5-2.028 4.315-.204.408-.35.679-.454.84-.103.161-.163.213-.193.183-.068-.067.19-1.058.571-2.2.326-.978.888-2.28 1.599-3.755a95.25 95.25 0 012.496-4.786 111.101 111.101 0 012.88-4.893c.968-1.547 1.914-2.957 2.753-4.077.538-.718 1.522-1.847 2.734-3.166a183.475 183.475 0 014.107-4.305 175.571 175.571 0 014.175-4.117c1.257-1.194 2.308-2.135 2.936-2.602.32-.238.505-.355.541-.337zm-162.915 23.69c.027-.014.09.334.197.977.3 1.799.604 3.484.922 5.075a102.38 102.38 0 001 4.51c.352 1.422.724 2.77 1.125 4.062.4 1.292.829 2.53 1.293 3.732a52.65 52.65 0 001.508 3.52 55.572 55.572 0 001.769 3.427 67.848 67.848 0 002.075 3.45 95.056 95.056 0 002.426 3.592c.159.225.23.371.232.45.002.077-.063.086-.178.034-.23-.103-.655-.447-1.12-.963a18.081 18.081 0 01-1.207-1.53 42.629 42.629 0 01-1.395-2.084 59.92 59.92 0 01-2.782-4.918c-.36-.718-.718-1.5-1.068-2.33-.35-.83-.69-1.706-1.02-2.615a73.633 73.633 0 01-1.804-5.711 69.248 69.248 0 01-1.31-5.72 47.295 47.295 0 01-.407-2.627 30.15 30.15 0 01-.207-2.344c-.053-1.203-.078-1.823-.058-1.958.002-.017.005-.027.009-.029zm202.768 0c.004.002.007.012.01.029.02.135-.005.755-.06 1.958a30.15 30.15 0 01-.206 2.344c-.103.834-.24 1.715-.406 2.627a69.259 69.259 0 01-1.311 5.72 73.632 73.632 0 01-1.803 5.71c-.33.91-.672 1.787-1.021 2.616-.35.83-.707 1.612-1.067 2.33a59.919 59.919 0 01-2.783 4.918c-.48.761-.954 1.469-1.395 2.084a18.08 18.08 0 01-1.206 1.53c-.466.516-.892.86-1.121.963-.115.052-.18.043-.178-.035.003-.078.074-.224.232-.449a95.018 95.018 0 002.426-3.592 67.848 67.848 0 002.075-3.45 55.57 55.57 0 001.769-3.427 52.65 52.65 0 001.508-3.52c.464-1.202.893-2.44 1.294-3.732.4-1.293.772-2.64 1.123-4.062.352-1.422.683-2.919 1.001-4.51.318-1.59.623-3.276.922-5.075.107-.643.17-.99.197-.977zm-144.705 4.02c.1 0 .284.145.516.387.233.242.514.58.807.968.293.388.597.823.877 1.26.28.435.535.871.729 1.259.452.904.789 1.644 1.008 2.26.11.307.19.584.241.835.05.25.072.476.064.68a1.655 1.655 0 01-.114.559 1.575 1.575 0 01-.293.465 2.546 2.546 0 01-.475.403c-.188.128-.407.25-.656.373-.345.17-.805.324-1.304.451-.5.128-1.04.23-1.544.295a8.257 8.257 0 01-1.339.082 2.179 2.179 0 01-.453-.057c-.118-.032-.199-.076-.234-.134a.56.56 0 01-.094-.31.435.435 0 01.1-.264.63.63 0 01.264-.183c.112-.044.247-.07.4-.07.222 0 .71-.155 1.191-.353.481-.199.953-.44 1.142-.609.041-.037.022-.1-.068-.199a3.496 3.496 0 00-.495-.408c-.486-.351-1.3-.873-2.53-1.627a18.16 18.16 0 01-1.217-.803c-.312-.229-.531-.42-.656-.572-.125-.152-.157-.266-.095-.342.061-.076.216-.113.463-.113.209 0 1.481.425 2.829.945 1.816.702 2.667 1.046 3.039 1.086.093.01.155.001.196-.026.04-.028.059-.073.063-.136.007-.126-.045-.323-.095-.582-.047-.245-.22-.728-.46-1.309a30.65 30.65 0 00-.864-1.897 25.226 25.226 0 01-.753-1.635c-.171-.42-.248-.68-.19-.68zm86.642 0c.058 0-.019.26-.19.68-.17.419-.435.998-.752 1.634a30.648 30.648 0 00-.865 1.897c-.24.581-.413 1.064-.46 1.31-.05.258-.101.455-.094.58.003.064.022.11.062.137.04.027.104.036.196.026.372-.04 1.223-.384 3.04-1.086 1.347-.52 2.62-.945 2.828-.945.247 0 .402.037.463.113.062.076.03.19-.095.342-.125.153-.343.343-.656.572-.312.23-.718.497-1.217.803-1.229.754-2.043 1.276-2.53 1.627-.243.176-.405.31-.495.408-.09.099-.11.162-.068.2.189.169.661.41 1.142.608.48.198.97.354 1.191.354.153 0 .288.025.4.069a.63.63 0 01.264.183.436.436 0 01.1.265.561.561 0 01-.093.31c-.036.057-.117.101-.235.133-.118.031-.272.05-.453.057a8.252 8.252 0 01-1.339-.082 13.38 13.38 0 01-1.544-.295c-.5-.127-.959-.281-1.304-.451a5.509 5.509 0 01-.656-.373 2.545 2.545 0 01-.475-.403 1.576 1.576 0 01-.293-.465 1.649 1.649 0 01-.114-.558c-.008-.205.013-.43.064-.681.051-.251.131-.528.24-.836.22-.615.557-1.355 1.01-2.26.193-.387.448-.823.728-1.259.28-.436.584-.871.877-1.259.293-.387.574-.726.807-.968.233-.242.417-.388.516-.388zM81.46 145.34c.087-.021.318.21.686.685.368.474.873 1.19 1.507 2.141.712 1.068 1.388 1.948 1.93 2.535.271.294.509.514.7.647.191.133.336.18.424.126.073-.045.14-.21.188-.442.05-.23.08-.526.08-.831 0-.309.027-.6.069-.852a2.89 2.89 0 01.161-.619c.064-.153.134-.246.202-.258.069-.011.135.059.191.23.07.215.2 1.164.292 2.11.091.946.345 2.953.565 4.46.22 1.508.353 2.787.297 2.844-.063.063-.221-.038-.453-.278-.232-.24-.54-.617-.901-1.107-.725-.98-1.67-2.409-2.68-4.074a33.59 33.59 0 01-1.099-1.989 52.607 52.607 0 01-1.071-2.212 31.931 31.931 0 01-.811-1.92c-.2-.534-.319-.935-.315-1.115 0-.048.013-.075.038-.08zm174.278 0c.025.006.038.033.038.08.004.181-.114.582-.315 1.116a31.93 31.93 0 01-.81 1.92 52.607 52.607 0 01-1.072 2.212c-.375.729-.755 1.42-1.1 1.989-1.01 1.665-1.954 3.094-2.678 4.074-.363.49-.67.868-.902 1.107-.232.24-.39.341-.453.278-.056-.057.078-1.336.297-2.843.22-1.508.474-3.515.565-4.461.091-.946.223-1.895.292-2.11.056-.171.122-.241.19-.23.07.012.14.105.203.258.063.153.12.367.162.619.04.252.067.543.067.852 0 .305.032.6.08.831.05.231.117.397.19.442.087.054.232.007.423-.126.192-.133.429-.353.7-.647.542-.587 1.218-1.467 1.93-2.535.634-.95 1.139-1.667 1.507-2.141.368-.475.6-.706.686-.685zm-40.873 38.976c.716 0 1.41.023 2.057.064.647.042 1.248.102 1.779.179.53.076.991.168 1.358.272.367.104.64.22.796.345.118.096.175.2.178.308.003.107-.048.216-.147.32a1.43 1.43 0 01-.434.29 3.178 3.178 0 01-.678.217c-.462.097-1.556.513-2.429.923a54.967 54.967 0 01-3.355 1.409c-.972.364-2.281.952-2.91 1.306a91.98 91.98 0 00-2.986 1.742c-.764.47-1.274.816-1.464.997-.219.208-.977.818-1.686 1.355l-1.29.977.86.35c.472.194 1.35.457 1.95.585.6.128 2.054.588 3.23 1.021.591.218 1.185.394 1.806.529.62.134 1.268.228 1.965.284.698.055 1.445.072 2.265.052.82-.02 1.713-.077 2.702-.169.755-.07 1.304-.098 1.682-.081.377.016.583.077.648.182.06.097.046.224-.029.374s-.21.322-.393.507c-.365.372-.92.797-1.56 1.21-.64.414-1.365.814-2.07 1.133-.351.16-.698.299-1.027.41-.328.11-.639.192-.918.237-.272.044-.52.109-.7.18-.18.07-.292.145-.292.207 0 .072.216.165.564.263.347.1.826.204 1.352.3.527.094 1.1.18 1.635.241.536.061 1.034.098 1.41.094.345-.003.626.024.82.076.196.052.305.129.305.224a.623.623 0 01-.104.308 1.978 1.978 0 01-.284.354 5.557 5.557 0 01-.952.748 7.77 7.77 0 01-1.197.628c-.404.167-.796.28-1.122.305l-.707.055.09 2.662c.037 1.079.032 1.837-.04 2.522-.073.686-.213 1.298-.448 2.085-.152.512-.28.921-.411 1.282a7.972 7.972 0 01-.432.992c-.331.637-.788 1.296-1.595 2.407-.55.757-1 1.442-1 1.52 0 .08.476.144 1.058.144.314 0 .56.034.736.093.176.058.281.141.313.24.032.099-.01.213-.129.334-.118.12-.313.248-.587.373l-.725.33.826.348c.235.1.437.206.602.313.165.108.292.216.376.321.085.105.126.204.121.295-.005.09-.057.17-.161.234-.078.048-.5.068-1.118.06a42.09 42.09 0 01-2.29-.102c-1.25-.087-2.096-.121-2.763-.094a6.365 6.365 0 00-1.683.275c-.572.172-1.218.312-1.896.419-.679.106-1.39.179-2.094.215-.703.037-1.398.037-2.043 0a10.72 10.72 0 01-1.745-.23c-.4-.093-.845-.23-1.306-.4a17.209 17.209 0 01-2.725-1.284 9.702 9.702 0 01-1.083-.728c-.276-.219-.715-.486-1.2-.74a12.547 12.547 0 00-1.474-.662 21.11 21.11 0 01-1.934-.798 9.244 9.244 0 01-1.38-.796c-.37-.266-.65-.533-.842-.803a1.58 1.58 0 01-.315-.817c-.023-.353.125-1.171.333-2.01.21-.838.48-1.696.7-2.13.101-.202.205-.634.292-1.167.086-.534.154-1.17.183-1.778.057-1.216.188-2.66.292-3.21.09-.48.13-.727.072-.834-.029-.053-.082-.07-.167-.064a2.009 2.009 0 00-.35.08c-.348.099-1.645.24-2.882.313-1.012.06-1.62.075-2.184-.009a5.288 5.288 0 01-.858-.206 16.411 16.411 0 01-1.059-.394c-.856-.343-1.319-.544-1.568-.75a.692.692 0 01-.235-.33 1.488 1.488 0 01-.049-.45v-.786l2.117-.162c.73-.055 1.378-.136 1.992-.262a10.593 10.593 0 001.788-.53 14.779 14.779 0 001.875-.914 36.572 36.572 0 002.253-1.411c2.77-1.852 2.879-1.927 4.686-3.204.927-.655 1.946-1.369 2.265-1.587.318-.219 2.34-1.647 4.495-3.175 2.153-1.528 4.157-2.913 4.451-3.077 1.264-.702 2.303-1.258 3.207-1.697.905-.439 1.676-.76 2.406-.993a11.23 11.23 0 012.156-.467c.738-.087 1.527-.116 2.458-.116zm-92.532 0c.931 0 1.72.03 2.458.117a11.23 11.23 0 012.156.467c.73.233 1.5.554 2.406.993.904.439 1.943.995 3.207 1.697.294.164 2.298 1.549 4.452 3.077a844.085 844.085 0 004.494 3.175c.319.218 1.338.932 2.265 1.587 1.807 1.277 1.917 1.352 4.686 3.204.847.566 1.582 1.03 2.253 1.411.672.381 1.281.68 1.875.914.594.234 1.174.404 1.788.53.614.126 1.262.207 1.992.262l2.117.162v.786c0 .182-.009.325-.048.45a.692.692 0 01-.236.33c-.25.206-.712.407-1.568.75-.417.167-.755.296-1.06.394a5.283 5.283 0 01-.857.206c-.564.084-1.172.07-2.184.01-1.237-.074-2.534-.214-2.881-.314a2.013 2.013 0 00-.351-.08c-.085-.006-.138.012-.167.065-.058.106-.018.354.073.834.103.55.234 1.994.292 3.21.028.608.096 1.243.182 1.777.087.534.191.966.293 1.168.22.434.49 1.292.699 2.13.209.838.356 1.657.333 2.01a1.581 1.581 0 01-.315.817c-.192.27-.471.537-.841.802-.37.266-.83.53-1.381.796-.552.265-1.196.531-1.934.799-.459.166-.99.407-1.474.661-.485.254-.924.522-1.2.74a9.702 9.702 0 01-1.082.728 17.21 17.21 0 01-2.726 1.285c-.46.17-.905.306-1.306.399-.504.116-1.1.192-1.745.23-.645.038-1.34.037-2.043 0a20.489 20.489 0 01-2.094-.215 14.407 14.407 0 01-1.896-.418 6.365 6.365 0 00-1.683-.276c-.667-.027-1.514.008-2.763.094-.86.06-1.672.095-2.29.102-.617.008-1.04-.012-1.118-.06-.104-.064-.156-.144-.161-.234-.005-.09.036-.19.12-.295a1.63 1.63 0 01.377-.32 3.81 3.81 0 01.603-.314l.825-.347-.725-.331c-.274-.125-.469-.252-.587-.373-.119-.121-.16-.235-.129-.334.032-.099.137-.182.313-.24.176-.059.422-.092.736-.092.582 0 1.058-.065 1.058-.144 0-.079-.45-.763-1-1.521-.806-1.11-1.263-1.77-1.595-2.406a7.98 7.98 0 01-.432-.992c-.13-.362-.259-.771-.411-1.283-.235-.787-.375-1.4-.448-2.085-.072-.685-.077-1.443-.04-2.522l.09-2.662-.707-.054c-.326-.025-.718-.138-1.122-.305a7.769 7.769 0 01-1.197-.628 5.556 5.556 0 01-.952-.748 1.978 1.978 0 01-.284-.355.623.623 0 01-.104-.308c0-.095.11-.171.304-.223.195-.052.476-.08.82-.076.377.003.875-.033 1.411-.094a25.908 25.908 0 001.635-.242c.526-.095 1.005-.2 1.353-.299.347-.099.563-.191.563-.263 0-.063-.112-.138-.292-.208a3.558 3.558 0 00-.7-.18 5.822 5.822 0 01-.918-.237c-.329-.11-.675-.25-1.027-.41-.705-.319-1.429-.719-2.07-1.132-.64-.413-1.195-.839-1.56-1.21a2.148 2.148 0 01-.393-.508c-.075-.15-.089-.276-.029-.373.065-.106.27-.166.648-.183.378-.016.927.011 1.682.082.99.092 1.882.148 2.702.169.82.02 1.568.003 2.265-.053.697-.055 1.344-.15 1.965-.284.62-.135 1.215-.31 1.806-.528 1.176-.434 2.63-.893 3.23-1.022a14.03 14.03 0 001.95-.584l.86-.35-1.29-.977c-.709-.538-1.467-1.148-1.685-1.355-.191-.182-.701-.527-1.464-.997a91.998 91.998 0 00-2.987-1.742c-.628-.354-1.938-.942-2.91-1.307a54.96 54.96 0 01-3.355-1.409c-.873-.41-1.967-.825-2.43-.923a3.178 3.178 0 01-.677-.216 1.429 1.429 0 01-.433-.29c-.1-.104-.151-.214-.148-.32.003-.108.06-.213.179-.308.155-.125.428-.241.795-.346.367-.104.828-.196 1.358-.272.531-.076 1.132-.137 1.78-.178.646-.042 1.34-.064 2.056-.064zm9.365 17.674l-1.036.685c-.29.192-.568.427-.828.696-.26.27-.503.574-.726.904a8.59 8.59 0 00-.61 1.058 9.757 9.757 0 00-.8 2.381c-.082.41-.135.82-.157 1.221-.022.402-.013.796.03 1.174.042.378.119.74.231 1.076.242.72.68 1.743.973 2.272.175.315.438.65.757.982a10.07 10.07 0 002.364 1.78c.429.23.856.414 1.25.527.312.09.635.158.966.204.331.047.67.073 1.013.078.687.011 1.391-.06 2.086-.205a9.914 9.914 0 002.023-.656 8.718 8.718 0 001.794-1.073 5.71 5.71 0 001.164-1.26c.34-.492.63-1.049.858-1.643a8.88 8.88 0 00.49-1.868c.097-.641.121-1.294.063-1.93a10.85 10.85 0 00-.119-1.004c-.05-.258-.119-.453-.233-.622-.114-.17-.273-.315-.504-.474-.23-.16-.533-.334-.934-.562a50.465 50.465 0 00-2.176-1.18 23.079 23.079 0 00-1.864-.848 21.921 21.921 0 00-1.902-.656 44.36 44.36 0 00-2.29-.605zm73.802 0l-1.882.452c-.868.209-1.612.402-2.291.605-.68.202-1.294.413-1.902.656-.608.243-1.21.518-1.864.848-.654.33-1.36.716-2.176 1.18a13.5 13.5 0 00-.934.562c-.23.16-.39.304-.504.474-.114.17-.183.364-.233.622-.05.258-.08.58-.12 1.005a8.145 8.145 0 00.063 1.93 8.88 8.88 0 00.491 1.867c.229.594.518 1.151.858 1.644.34.493.732.921 1.164 1.259a8.718 8.718 0 001.794 1.073c.645.29 1.33.51 2.024.656a9.47 9.47 0 002.085.205 8.162 8.162 0 001.013-.078c.331-.046.654-.114.966-.204a6.465 6.465 0 001.25-.527 10.07 10.07 0 002.364-1.78c.32-.332.582-.667.757-.982.293-.529.731-1.552.973-2.272.113-.337.189-.698.231-1.076a7.08 7.08 0 00.03-1.174 8.816 8.816 0 00-.156-1.22 9.826 9.826 0 00-.8-2.382 8.59 8.59 0 00-.61-1.058 6.797 6.797 0 00-.727-.904 4.964 4.964 0 00-.827-.696zm-36.9 41.408h.06v12.361c-.014.001-.04.014-.061.022-.02-.008-.047-.021-.06-.022V243.4h.06zm-.062 0v12.408c-.143.077-.379.248-.674.486a24.99 24.99 0 00-1.431 1.267 22.378 22.378 0 01-1.691 1.444c-.56.431-1.072.779-1.4.937a9.912 9.912 0 01-.873.39 2.027 2.027 0 01-.66.138 2.444 2.444 0 01-.712-.105c-.275-.075-.603-.19-1.027-.344-.658-.238-1.514-.625-2.437-1.084-.922-.46-1.91-.992-2.83-1.519-.919-.527-1.77-1.05-2.417-1.49-.648-.442-1.092-.802-1.2-1.003a.619.619 0 01-.083-.293c0-.1.028-.207.09-.332.126-.25.388-.572.833-1.055.302-.328.612-.626.867-.843.255-.216.456-.35.54-.35.17 0 1.256.604 2.414 1.342 1.415.901 2.665 1.624 3.656 2.121.496.25.927.442 1.282.572.355.13.634.198.825.198.173 0 .457-.092.776-.24.318-.148.672-.353.982-.578.683-.494 1.545-1.254 2.237-1.934.345-.34.648-.66.865-.918.216-.258.346-.452.346-.541 0-.07-.22-.3-.574-.614a23.7 23.7 0 00-1.38-1.114c-1.097-.825-1.984-1.584-2.658-2.269-.337-.342-.62-.666-.85-.97a4.738 4.738 0 01-.529-.852 2.047 2.047 0 01-.203-.73 1.095 1.095 0 01.125-.6c.097-.177.248-.332.456-.463.207-.132.47-.24.789-.323.997-.26 2.07-.447 3.192-.568a31.46 31.46 0 013.354-.17zm.122 0c1.144.001 2.271.055 3.354.171 1.121.121 2.196.308 3.192.568.32.084.582.191.79.323.207.131.358.286.455.464.097.178.138.378.125.6a2.047 2.047 0 01-.203.729 4.738 4.738 0 01-.528.852c-.23.304-.514.628-.85.97-.675.685-1.562 1.444-2.659 2.27a23.7 23.7 0 00-1.38 1.113c-.354.314-.574.543-.574.614 0 .089.13.283.346.54.217.258.52.578.865.919.692.68 1.554 1.44 2.237 1.934.31.225.664.43.982.578.32.148.603.24.777.24.19 0 .47-.068.824-.198.355-.13.786-.323 1.282-.572.991-.497 2.241-1.22 3.656-2.121 1.158-.738 2.244-1.342 2.414-1.342.084 0 .285.134.54.35.255.217.565.515.867.843.445.483.707.804.832 1.055a.74.74 0 01.09.332c0 .1-.03.195-.082.293-.107.201-.552.561-1.2 1.002-.647.441-1.498.964-2.417 1.491-.92.527-1.908 1.06-2.83 1.519-.922.46-1.78.846-2.436 1.084-.425.154-.753.269-1.028.344a2.45 2.45 0 01-.711.105 2.027 2.027 0 01-.66-.138 9.912 9.912 0 01-.874-.39c-.328-.158-.84-.506-1.4-.937a22.381 22.381 0 01-1.69-1.444 24.987 24.987 0 00-1.432-1.267c-.295-.238-.53-.409-.674-.486z" fill="#fff"/></svg>