<svg
   xmlns="http://www.w3.org/2000/svg"
   xmlns:xlink="http://www.w3.org/1999/xlink"
   viewBox="0 0 570.74377 154.26766">
  <defs
     id="defs833">
    <linearGradient
       id="linearGradient864">
      <stop
         style="stop-color:#00aff0;stop-opacity:1"
         offset="0"
         id="stop860" />
      <stop
         style="stop-color:#0085f0;stop-opacity:1"
         offset="1"
         id="stop862" />
    </linearGradient>
    <linearGradient
       xlink:href="#linearGradient864"
       id="linearGradient866"
       x1="-132.82483"
       y1="99.902443"
       x2="-61.303768"
       y2="8.5144129"
       gradientUnits="userSpaceOnUse"
       gradientTransform="matrix(1.2187274,0,0,1.2187274,193.00749,14.873339)" />
  </defs>
  <path
     fill="url(#linearGradient866)"
     opacity="0"
     d="M 154.26765,77.133826 A 77.133826,77.133826 0 0 1 77.133824,154.26765 77.133826,77.133826 0 0 1 0,77.133826 77.133826,77.133826 0 0 1 77.133824,0 77.133826,77.133826 0 0 1 154.26765,77.133826 Z"
     id="gradient" />
  <path
     id="lettero"
     fill="#313131"
     stroke="#313131"
     stroke-width="1"
     class="blackletter"
     d="m 77.01381,30.933923 a 46.2,46.2 0 1 0 46.32001,46.17 46.26,46.26 0 0 0 -46.32001,-46.17 z m 0,87.569997 A 41.38,41.38 0 1 1 118.49382,77.103923 41.44,41.44 0 0 1 77.01381,118.48392 Z" />
  <path
     id="lettern"
     fill="#313131"
     stroke="#313131"
     stroke-width="1"
     class="blackletter"
     d="m 134.53381,111.23392 h 5.91 V 75.593923 c 0,-12.8 9.3,-22 21.37999,-22 12.44,0 19.57,8.33 19.57,21 v 36.599997 h 5.92 V 73.543923 c 0,-14.74 -9.06,-25.37 -24.64,-25.37 -11.23,0 -18.12,5.68 -22.23,12.93 v -11.48 h -5.91 z" />
  <path
     id="letterl"
     fill="#313131"
     stroke="#313131"
     stroke-width="1"
     class="blackletter"
     d="m 209.4138,23.043923 h 5.92 v 88.189997 h -5.92 z" />
  <path
     id="lettery"
     fill="#313131"
     stroke="#313131"
     stroke-width="1"
     class="blackletter"
     d="m 246.1338,130.93392 c 8.82,0 15.10001,-4.6 20.53001,-17.52 l 26.70001,-63.789997 h -6.53 l -22.22,55.089997 -25.61,-55.089997 h -6.88 l 29.56999,61.249997 c -4.59,10.75 -8.81999,14.5 -15.22,14.5 a 21.43,21.43 0 0 1 -10.5,-2.3 l -2.06,5.2 a 27.76,27.76 0 0 0 12.21999,2.66 z" />
  <path
     id="bletterf"
     fill="#00aff0"
     stroke="#00aff0"
     stroke-width="1"
     class="blueletter"
     d="m 358.42382,45.683923 q 2.58999,-3.95 5.24,-8.25 c 1.77,-2.87 3.37,-5.62 4.83,-8.25 1.45999,-2.63 2.63999,-5 3.57,-7.1 a 13.26,13.26 0 0 0 1.39999,-4.93 10.06,10.06 0 0 0 -2.23,-6.640001 16.59,16.59 0 0 0 -5.86001,-4.41 30.52,30.52 0 0 0 -8.29,-2.439999 63.33,63.33 0 0 0 -9.65,-0.73 141.77,141.77 0 0 0 -32.31,3.469999 148.64,148.64 0 0 0 -27,8.920001 126.3,126.3 0 0 0 -21.41,12 134.24,134.24 0 0 0 -15.61,12.71 67,67 0 0 0 -9.54,11 q -3.22,4.94 -3.22,7.11 a 7.63,7.63 0 0 0 1.56,4.82 11.09,11.09 0 0 0 3.42,3.06 5.85,5.85 0 0 0 3.42,0.89 c 1,-0.11 1.56,-0.64 1.56,-1.61 0,-1.87 1.17,-4.58 3.52,-8.15 a 73.59,73.59 0 0 1 10,-11.67 136.24,136.24 0 0 1 15.66001,-12.91 136.18,136.18 0 0 1 44.75999,-20.800001 106.81,106.81 0 0 1 27.26,-3.34 19.91,19.91 0 0 1 6.85001,0.94 8.75,8.75 0 0 1 3.68,2.33 6.11,6.11 0 0 1 1.45,3.060001 19.46,19.46 0 0 1 0.25999,3.11 14.64,14.64 0 0 1 -1.44999,5.45 70.32,70.32 0 0 1 -3.78,7.37 q -2.33999,4 -5.19,8.24 -2.85,4.24 -5.63,8 a 161.29,161.29 0 0 0 -22,4.2 87.7,87.7 0 0 0 -16.43999,6.07 35.86,35.86 0 0 0 -10.32,7.32 q -3.58,3.89 -3.58,7.93 a 8.88,8.88 0 0 0 1,4.31 7.42,7.42 0 0 0 2.17,2.64 2.85,2.85 0 0 0 2.18,0.63 q 1,-0.21 1,-1.77 c 0,-1 0.88,-2.5 2.64,-4.41 a 43.89,43.89 0 0 1 7.68,-6.22 86,86 0 0 1 12.41,-6.7 106.11,106.11 0 0 1 17.12,-5.87 q -6.23,8.1 -12.5,15.93 -6.27,7.83 -11.31,15.2 a 100.58,100.58 0 0 0 -8.14,14.049997 29.71,29.71 0 0 0 -3.11,12.4 17.14,17.14 0 0 0 0.73,5.08 15,15 0 0 0 1.92,4.15 9.93,9.93 0 0 0 2.75,2.8 5.62,5.62 0 0 0 3.21,1 2.27,2.27 0 0 0 1.66,-0.62 3.15,3.15 0 0 0 0.83,-1.56 12.43,12.43 0 0 0 0.26,-2.07 v -2.18 q 0,-5.6 3.58,-13.28 a 154.49,154.49 0 0 1 9.13,-16.550001 q 5.54,-8.859996 12.29,-18.409996 6.75,-9.55 13.17,-18.88 a 142.27,142.27 0 0 1 21.78,-1.56 15.24,15.24 0 0 1 4.51,0.57 27.84,27.84 0 0 1 3,1.09 9.79,9.79 0 0 0 1.6,0.63 c 0.32,0.06 0.47,-0.21 0.47,-0.83 a 6.83,6.83 0 0 0 -2.07,-4.78 q -2.08,-2.17 -6.33,-2.18 -9.85,0 -18.57,0.63 z" />
  <path
     id="blettera"
     fill="#00aff0"
     stroke="#00aff0"
     stroke-width="1"
     class="blueletter"
     d="m 429.83381,67.003923 q -2.75,3.68 -6.17,8.14 -3.42001,4.46 -7.26,9.08 -3.83999,4.619996 -7.41001,8.399996 a 73,73 0 0 1 -6.54,6.22 q -3,2.450001 -4.72,2.440001 c -1.59,0 -2.31,-0.76 -2.18,-2.280001 a 16,16 0 0 1 2,-5.65 q 1.74001,-3.42 4.38001,-7.419996 c 1.76999,-2.7 3.49,-5.2 5.19,-7.52 1.69999,-2.32 3.13999,-4.29 4.35,-5.92 a 13,13 0 0 0 1.82,-2.75 c 0,-0.27 -0.20999,-0.57 -0.62,-0.88 a 10.7,10.7 0 0 0 -1.56,-0.93 c -0.62,-0.31 -1.27999,-0.6 -2,-0.88 a 11.65,11.65 0 0 0 -2,-0.62 16.76,16.76 0 0 0 1.14,-5.71 20.51,20.51 0 0 0 -0.57,-5 10.82,10.82 0 0 0 -1.81,-3.94 8.45,8.45 0 0 0 -3.27,-2.6 12,12 0 0 0 -5,-0.93 28.79,28.79 0 0 0 -11.31,2.28 43,43 0 0 0 -10.11,6.07 55.54,55.54 0 0 0 -8.61001,8.66 70.56,70.56 0 0 0 -6.63999,9.91 54,54 0 0 0 -4.24001,9.93 30,30 0 0 0 -1.5,8.709996 19.28,19.28 0 0 0 1.35001,7.680001 14.21,14.21 0 0 0 3.47001,5 13,13 0 0 0 4.62,2.75 14.58,14.58 0 0 0 4.66,0.83 11.15,11.15 0 0 0 5.76,-1.61 25.69,25.69 0 0 0 4.84,-3.53 29.77,29.77 0 0 0 4.36,-5.290001 14.52,14.52 0 0 0 0.31,5.290001 7.8,7.8 0 0 0 2.13,3.58 c 1.07,1.08 2.77999,1.61 5.13,1.61 q 2.7,0 6.52999,-2.8 a 67.86,67.86 0 0 0 8.15,-7.16 q 4.31,-4.350001 8.86,-9.800001 4.55,-5.449996 8.61,-10.689996 4.05001,-5.23 7.37,-9.8 3.32,-4.57 5.18001,-7.16 a 1.58,1.58 0 0 0 0.31,-1.19 1,1 0 0 0 -0.57,-0.78 2,2 0 0 0 -1.14,-0.1 1.79,1.79 0 0 0 -1.19,0.83 q -1.35,1.84 -4.10001,5.53 z m -63.82999,34.229997 a 21.12,21.12 0 0 1 0.41,-9.180001 61.29,61.29 0 0 1 4.2,-11.929996 66.19,66.19 0 0 1 7.07999,-11.93 43.71,43.71 0 0 1 9.08,-9.18 16.91,16.91 0 0 1 10.16001,-3.69 3.53,3.53 0 0 1 3.17,1.51 7,7 0 0 1 1,3.89 14.9,14.9 0 0 1 -1.45,6.48 35.51,35.51 0 0 1 -3.16,5.45 38.63,38.63 0 0 1 -3.12,3.89 7.67,7.67 0 0 0 -1.4,1.71 3.66,3.66 0 0 0 0.68,1.14 22.74,22.74 0 0 0 1.5,1.87 q -2.79,4 -5.86,8.249996 a 89.42,89.42 0 0 1 -6.17,7.62 40.2,40.2 0 0 1 -6.12,5.610001 9.85,9.85 0 0 1 -5.7,2.17 c -2.33,0.02 -3.75,-1.22 -4.3,-3.68 z" />
  <path
     id="blettern"
     fill="#00aff0"
     stroke="#00aff0"
     stroke-width="1"
     class="blueletter"
     d="m 459.13381,107.30392 a 63.22,63.22 0 0 0 8.25,-7.16 q 4.31,-4.350001 8.76,-9.800001 4.45,-5.449996 8.4,-10.689996 3.94,-5.23 7.16,-9.8 3.22001,-4.57 5.08,-7.16 a 1.58,1.58 0 0 0 0.31,-1.19 1,1 0 0 0 -0.57,-0.78 2,2 0 0 0 -1.14,-0.1 1.79,1.79 0 0 0 -1.19,0.83 q -1.35,1.86 -4.1,5.55 -2.75,3.69 -6.17,8.14 -3.42001,4.46 -7.26,9.08 -3.84,4.619996 -7.42001,8.399996 a 71.72,71.72 0 0 1 -6.55,6.22 q -3,2.450001 -4.72,2.440001 -2.07,0 -2.28,-1.350001 a 7,7 0 0 1 0.88,-3.68 38.2,38.2 0 0 1 3.27,-5.45 q 2.18,-3.11 4.72001,-6.629996 c 1.69,-2.36 3.42,-4.79 5.18,-7.32 1.76,-2.53 3.37,-5 4.82999,-7.42 a 54.81,54.81 0 0 0 3.57,-7 15.34,15.34 0 0 0 1.4,-5.91 10.37,10.37 0 0 0 -1.55,-6.12 q -1.56,-2.18 -5.08,-2.18 a 15.16,15.16 0 0 0 -7.11,2 44.71,44.71 0 0 0 -7.52,5.14 91.24,91.24 0 0 0 -7.15,6.64 q -3.43,3.53 -6.12,6.64 -2.69,3.11 -4.41,5.13 a 10.4,10.4 0 0 1 -1.92,2 c -0.21,0 0.09,-0.76 0.88,-2.29 0.79,-1.53 1.73,-3.33 2.8,-5.44 1.07,-2.11 2.06,-4.32 3,-6.64 a 17,17 0 0 0 1.35,-6 5.66,5.66 0 0 0 -1.45999,-4 9.91,9.91 0 0 0 -3.16001,-2.34 8.46,8.46 0 0 0 -3.11,-0.83 c -0.93,0 -1.4,0.09 -1.4,0.37 a 25.81,25.81 0 0 1 -2.13,8.87 127.75,127.75 0 0 1 -5.33999,11.72 q -3.21,6.27 -6.95,12.71 -3.74,6.439996 -6.97001,11.759996 -3.20999,5.24 -5.33999,8.610001 a 24,24 0 0 0 -2.16001,3.66 2.12,2.12 0 0 0 0.46,1 6.82,6.82 0 0 0 1.4,1.4 9.54,9.54 0 0 0 2.18,1.24 6.88,6.88 0 0 0 2.7,0.52 c 0.55,0 1.54,-0.78 3,-2.33 1.46,-1.55 3.15,-3.62 5.19,-6.18 2.04,-2.560001 4.32,-5.480001 6.84,-8.760001 2.52,-3.28 5.12,-6.639996 7.78,-10.069996 2.66,-3.43 5.36,-6.77 8.09,-10.06 2.73,-3.29 5.35,-6.2 7.83,-8.76 a 60.35,60.35 0 0 1 6.85,-6.18 q 3.1,-2.32 5.19,-2.33 c 1.72,0 2.36,0.71 1.91,2.13 a 22.25,22.25 0 0 1 -3.16,5.6 q -2.49,3.48 -6.12,8.09 -3.63,4.61 -6.95,9.54 a 78.94,78.94 0 0 0 -5.7,9.909996 21.72,21.72 0 0 0 -2.39,9.340001 11.76,11.76 0 0 0 0.83,5.08 8.79,8.79 0 0 0 2.49,3.42 7.44,7.44 0 0 0 5.08,1.56 c 2,0.01 4.31,-0.92 6.94001,-2.79 z" />
  <path
     id="bletters"
     fill="#00aff0"
     stroke="#00aff0"
     stroke-width="1"
     class="blueletter"
     d="m 535.0038,65.393923 q -1.81,2.49 -4.14999,5.65 -2.34,3.16 -5,6.69 -2.7,3.54 -5.5,6.85 c -1.86,2.21 -3.68,4.289996 -5.44,6.219996 a 48.93,48.93 0 0 1 -5,4.88 23,23 0 0 0 0.77999,-3.58 27.93,27.93 0 0 0 0.26,-3.68 48.17,48.17 0 0 0 -0.82999,-8.869996 c -0.56,-2.94 -1.16001,-5.91 -1.82,-8.92 -0.66001,-3.01 -1.26,-6 -1.81,-9.08 a 50.86,50.86 0 0 1 -0.83,-9.23 11.7,11.7 0 0 1 1.24,-5.5 28.27,28.27 0 0 1 2.7,-4.26 c 1,-1.24 1.86,-2.36 2.69,-3.37 a 4.5,4.5 0 0 0 1.25,-2.75 1.88,1.88 0 0 0 -0.93,-1.5 4,4 0 0 0 -2.39,-0.67 16.35,16.35 0 0 0 -6.12,1.24 19,19 0 0 0 -9.7,8.71 13.48,13.48 0 0 0 -1.6,6.44 50.63,50.63 0 0 0 0.88,8.14 c 0.57999,3.42 1.20999,7.12 1.86,11.1 0.64999,3.98 1.18,8 1.56,12 a 55.5,55.5 0 0 1 0,10.999996 17.72,17.72 0 0 1 -2.58999,8.000001 c -1.39,2.08 -3.56,3.11 -6.54001,3.11 -2.98,0 -5,-0.77 -6.17,-2.33 a 8.19,8.19 0 0 1 -1.81,-5.140001 3.54,3.54 0 0 0 -0.62,-2.23 1.6,1.6 0 0 0 -1.35001,-0.72 1.84,1.84 0 0 0 -1.35,1 5.31,5.31 0 0 0 -0.62,2.91 14,14 0 0 0 0.77,4.460001 11.39,11.39 0 0 0 2.39,4 12.43,12.43 0 0 0 4.1,2.91 14.1,14.1 0 0 0 5.91,1.14 h 1.55 a 20.53,20.53 0 0 0 10,-2.8 54.28,54.28 0 0 0 10,-7.16 95,95 0 0 0 9.44,-9.800001 q 4.48,-5.319996 8.36,-10.599996 3.88,-5.28 6.95,-9.8 3.06,-4.56 4.93,-7.16 a 1.41,1.41 0 0 0 0.25,-1.19 1.11,1.11 0 0 0 -0.62,-0.78 1.86,1.86 0 0 0 -1.09,-0.1 1.82,1.82 0 0 0 -1.13999,0.83 q -1.03,1.48 -2.85001,3.94 z" />
  <path
     id="lock"
     fill="#00aff0"
     stroke="#00aff0"
     stroke-width="1"
     class="blueletter"
     d="m 96.22381,74.123923 v -3.77 a 16.75,16.75 0 0 0 -5.08,-12 17.31,17.31 0 0 0 -12.19,-5 h -3.1 a 17.31,17.31 0 0 0 -12.18,5 16.7,16.7 0 0 0 -5.07,12 v 3.77 l -2.14,3.86 v 5.56 a 18.64,18.64 0 0 0 5.64,13.329996 19.37,19.37 0 0 0 13.59,5.540001 h 3.45 a 19.33,19.33 0 0 0 13.55,-5.540001 18.61,18.61 0 0 0 5.65,-13.329996 v -5.56 z m -16.8,17.059996 v 4.45 a 1.93,1.93 0 0 1 -0.89,1.64 h -0.84 a 1,1 0 0 1 -0.3,0 h -0.2 a 1.18,1.18 0 0 1 -0.25,0 h -0.38 a 2,2 0 0 1 -0.92,-1.67 v -4.42 a 5.3,5.3 0 0 1 2,-10.239996 h 0.11 a 5.3,5.3 0 0 1 2,10.239996 z m 9.09,-16.939996 h -22.21 v -3.89 a 9.27,9.27 0 0 1 2.81,-6.63 9.62,9.62 0 0 1 6.74,-2.79 h 3.1 a 9.61,9.61 0 0 1 6.74,2.79 9.31,9.31 0 0 1 2.81,6.63 z" />
</svg>
